<svg xmlns="http://www.w3.org/2000/svg" x="0px" y="0px" width="50" height="50" viewBox="0 0 171 171"
    style=" fill:#000000;">
    <g fill="none" fill-rule="nonzero" stroke="none" stroke-width="1" stroke-linecap="butt" stroke-linejoin="miter"
        stroke-miterlimit="10" stroke-dasharray="" stroke-dashoffset="0" font-family="none" font-weight="none"
        font-size="none" text-anchor="none" style="mix-blend-mode: normal">
        <path d="M0,171.99231v-171.99231h171.99231v171.99231z" fill="none"></path>
        <g fill="#0d5144">
            <path
                d="M84.11063,4.88953l-3.21293,8.62348l-12.31735,33.05109l-38.42824,-21.90937l14.8957,41.91504l-43.52484,7.90875l38.34809,22.53727l-28.25508,34.05305l43.10402,-7.31426v42.2891l29.78473,-32.1627l28.35527,32.57684v-42.76336l44.15273,6.90012l-28.20164,-34.13988l38.18777,-22.32352l-43.75195,-8.06238l14.90906,-41.64785l-38.68875,21.94945zM84.09059,24.53449l11.74957,31.75523l29.67785,-16.83281l-11.42227,31.88215l33.55207,6.17871l-29.23699,17.09332l21.84926,26.44488l-34.24008,-5.35043v32.47664l-21.35496,-24.53449l-23.10504,24.94195v-32.93754l-32.89746,5.58422l21.61547,-26.0441l-29.41066,-17.28035l33.31828,-6.05848l-11.42227,-32.13598l29.41735,16.7727z">
            </path>
        </g>
    </g>
</svg>